<mxfile host="app.diagrams.net" modified="2023-06-02T08:43:23.803Z" agent="Mozilla/5.0 (Windows NT 10.0; Win64; x64) AppleWebKit/537.36 (KHTML, like Gecko) Chrome/113.0.0.0 Safari/537.36" etag="tP9EhymYDTJuE5eks4xd" version="21.2.9" type="github">
  <diagram name="第 1 页" id="y_GlsMZmKY6b9rVgk657">
    <mxGraphModel dx="1050" dy="493" grid="1" gridSize="10" guides="1" tooltips="1" connect="1" arrows="1" fold="1" page="1" pageScale="1" pageWidth="869" pageHeight="390" math="0" shadow="0">
      <root>
        <mxCell id="0" />
        <mxCell id="1" parent="0" />
      </root>
    </mxGraphModel>
  </diagram>
</mxfile>
